<?xml version="1.0" standalone="no"?>
<!DOCTYPE svg PUBLIC "-//W3C//DTD SVG 20010904//EN"
 "http://www.w3.org/TR/2001/REC-SVG-20010904/DTD/svg10.dtd">
<svg version="1.0" xmlns="http://www.w3.org/2000/svg"
 width="2000.000000pt" height="2000.000000pt" viewBox="0 0 2000.000000 2000.000000"
 preserveAspectRatio="xMidYMid meet">
<metadata>
Created by potrace 1.16, written by Peter Selinger 2001-2019
</metadata>
<g transform="translate(0.000000,2000.000000) scale(0.100000,-0.100000)"
fill="#000000" stroke="none">
<path d="M9500 16670 c-162 -43 -420 -110 -573 -150 l-278 -72 -207 57 -207
56 -47 -53 c-28 -31 -59 -81 -75 -122 l-28 -68 -102 6 c-57 4 -103 5 -103 2 0
-2 54 -26 120 -52 66 -26 119 -48 117 -49 -1 -1 -51 1 -112 5 l-110 6 -77 -58
-77 -58 -51 20 -51 20 -95 -66 -94 -65 0 -65 c0 -36 -4 -63 -9 -60 -4 3 -17
35 -27 71 -10 36 -21 65 -25 65 -7 0 -111 -241 -106 -246 1 -2 36 -14 77 -26
l75 -24 87 -114 c119 -156 209 -280 204 -280 -2 0 -74 78 -160 173 l-156 174
-196 33 -196 33 -84 -84 c-46 -46 -84 -86 -84 -90 0 -3 61 -32 135 -63 74 -32
135 -60 135 -62 0 -3 -22 -2 -48 2 l-49 6 -283 -301 c-155 -166 -292 -303
-304 -306 -11 -3 -64 -12 -116 -20 -52 -8 -104 -17 -116 -20 -15 -3 -35 -37
-78 -132 -57 -128 -58 -128 -137 -191 l-79 -63 -1 -52 c0 -29 -2 -63 -4 -77
-6 -47 -14 -220 -10 -220 2 0 19 63 37 141 36 156 24 139 158 234 l55 40 -39
-50 c-22 -28 -50 -62 -61 -76 -20 -24 -85 -251 -85 -295 0 -9 27 -45 60 -81
l60 -66 0 -100 0 -100 67 -103 c37 -57 68 -102 69 -101 2 1 -12 49 -30 107
l-33 103 45 114 c25 62 47 111 49 109 2 -2 -1 -53 -7 -114 l-11 -110 51 -102
c40 -79 54 -100 68 -96 9 3 132 33 272 66 140 34 261 64 269 68 7 4 45 94 84
200 38 106 71 191 72 190 1 -2 -11 -89 -26 -195 -33 -228 -81 -660 -109 -976
l-20 -229 33 -41 c63 -78 60 -79 -40 -17 -12 8 -24 12 -26 10 -2 -3 -30 -43
-61 -90 l-56 -85 67 -23 c38 -13 102 -30 143 -38 206 -40 388 -129 527 -258
l63 -58 197 -23 198 -24 -180 5 c-99 3 -193 7 -209 11 -16 3 -57 29 -90 57
-155 131 -314 208 -487 235 -41 7 -124 28 -185 49 l-112 36 -128 -17 c-177
-25 -370 -63 -451 -90 l-68 -23 -30 -115 -29 -116 62 -70 c44 -50 64 -81 67
-104 21 -167 30 -217 51 -304 100 -396 329 -648 661 -728 l90 -21 12 -106 c6
-58 20 -141 30 -185 10 -44 31 -131 45 -193 l27 -113 -26 -130 c-26 -130 -26
-132 -14 -322 6 -106 13 -194 15 -196 2 -2 11 2 20 10 16 13 17 11 10 -16 -4
-16 -23 -98 -41 -182 l-34 -151 20 -84 c11 -45 28 -121 39 -168 66 -300 151
-662 160 -682 27 -66 140 -391 137 -395 -3 -2 -44 44 -92 102 -49 58 -90 104
-91 102 -2 -2 -26 -48 -53 -103 -81 -167 -226 -344 -433 -531 -180 -161 -308
-263 -803 -633 -615 -461 -827 -640 -1153 -975 -158 -162 -370 -404 -394 -450
-6 -11 27 16 73 60 109 104 236 205 466 372 311 224 1033 700 1033 680 0 -1
-63 -135 -141 -297 -77 -162 -156 -326 -174 -365 -41 -87 -111 -235 -204 -430
l-72 -149 822 -821 c451 -451 815 -809 809 -795 -7 14 -96 178 -198 365 -181
333 -218 401 -389 715 -47 85 -159 291 -250 458 l-164 304 53 56 c29 31 237
256 462 500 224 243 410 442 412 442 5 0 11 13 -204 -470 -317 -715 -287 -641
-271 -667 8 -13 154 -225 324 -470 171 -246 331 -476 356 -512 25 -36 83 -120
129 -186 46 -66 133 -191 193 -279 l110 -159 21 37 c49 86 228 369 296 466
406 582 978 1207 1603 1754 162 141 189 160 126 85 -195 -232 -572 -773 -891
-1280 -228 -362 -518 -852 -518 -875 0 -5 91 -72 202 -149 261 -181 722 -501
773 -536 l39 -27 186 181 c306 300 634 580 1015 867 105 79 267 203 360 275
661 512 1430 1050 2156 1508 373 235 1126 684 1134 675 2 -2 -96 -92 -218
-200 -409 -362 -1406 -1261 -1403 -1265 1 -2 120 56 265 127 144 72 264 130
265 130 2 0 90 42 197 94 576 278 1487 699 2366 1092 l312 139 -32 16 c-18 9
-129 60 -247 112 -118 52 -455 201 -749 332 l-535 237 -135 -52 c-243 -94
-481 -201 -766 -345 -314 -158 -464 -241 -770 -423 -845 -504 -1815 -1209
-2670 -1942 -93 -80 -178 -152 -190 -159 -93 -67 711 745 958 966 796 715
1603 1296 2457 1770 144 81 510 266 599 304 45 19 51 24 35 31 -29 12 -917
248 -934 248 -13 0 -19 -31 -35 -175 -10 -96 -21 -175 -24 -175 -4 0 -86 307
-184 683 -98 375 -183 696 -188 714 l-10 32 -162 3 c-89 2 -174 1 -188 0 -29
-4 -28 0 -55 -252 -4 -36 -7 -171 -6 -301 1 -232 17 -423 47 -580 7 -41 13
-74 12 -75 -3 -1 -568 -480 -807 -684 -107 -91 -377 -321 -600 -510 -223 -188
-416 -352 -430 -364 l-24 -21 25 35 c166 226 758 1032 842 1145 36 49 63 92
59 96 -8 7 -182 33 -186 28 -2 -2 -17 -31 -34 -64 l-30 -60 -398 -194 c-220
-107 -482 -236 -584 -287 -102 -50 -186 -91 -187 -90 -1 1 36 127 82 280 47
152 85 283 85 289 0 7 -27 86 -60 175 -33 90 -61 171 -62 179 -2 12 18 21 92
38 l95 22 300 223 c165 123 440 328 610 455 171 127 337 250 370 274 33 25 61
45 63 46 4 3 181 949 178 952 -1 2 -90 -69 -197 -156 -107 -87 -196 -157 -198
-155 -1 1 94 111 212 243 205 228 216 242 222 288 20 162 75 310 139 372 l36
34 -30 -69 c-44 -105 -56 -189 -41 -278 11 -67 10 -77 -9 -120 -25 -60 -25
-64 3 -68 20 -3 22 -9 25 -65 3 -72 -7 -68 126 -52 l94 12 11 36 c13 40 53 74
356 300 99 74 218 167 265 207 291 245 502 556 572 841 30 122 29 314 -1 428
-20 77 -71 218 -77 213 -1 -2 5 -28 13 -58 22 -78 22 -351 0 -440 -16 -65 -16
-65 -13 -16 5 70 -11 213 -30 271 -57 172 -159 273 -315 310 -93 22 -118 19
-197 -20 -151 -76 -192 -140 -318 -488 l-68 -188 -19 37 c-11 21 -29 78 -41
128 l-23 90 -17 -66 c-30 -108 -20 -182 39 -303 41 -82 50 -112 53 -165 4 -73
-7 -95 -109 -215 -78 -92 -113 -175 -74 -175 8 0 69 18 136 41 91 30 139 41
198 43 176 6 312 131 360 331 17 70 15 245 -4 345 -20 104 -30 236 -21 284 9
47 51 96 82 96 37 0 78 -25 118 -71 104 -122 113 -357 21 -564 -14 -32 -24
-60 -21 -62 2 -2 33 25 70 60 36 36 66 58 66 51 0 -28 -55 -184 -94 -269 -54
-115 -118 -214 -187 -289 -89 -98 -503 -431 -588 -474 -97 -48 -190 -56 -269
-22 -59 25 -64 39 -63 153 0 89 20 166 66 257 19 38 31 70 25 70 -6 0 -36 -9
-67 -20 l-56 -19 7 47 c15 105 75 622 81 697 6 77 5 85 -44 230 l-50 150 34
-39 c19 -22 35 -35 35 -30 0 6 -11 46 -24 91 l-23 81 79 103 c44 57 86 105 93
107 7 2 50 -4 95 -12 l82 -16 89 40 c74 33 92 38 116 29 24 -8 38 -5 86 22 31
17 57 34 57 39 0 9 -55 32 -120 50 -25 7 -94 16 -155 21 l-110 7 135 -3 c95
-2 158 -9 213 -24 64 -17 87 -19 130 -10 29 5 93 10 144 11 l92 1 25 106 c34
146 80 392 110 601 52 353 125 918 130 1010 10 157 36 551 41 620 2 36 7 101
10 145 3 44 8 109 10 145 l5 65 -164 150 c-90 83 -160 151 -155 153 4 2 77
-15 161 -38 l153 -41 50 -57 c28 -31 64 -73 82 -92 l32 -35 -34 110 c-20 61
-47 148 -61 195 l-26 86 -215 74 c-239 83 -240 84 -58 96 l110 7 -145 48 c-80
27 -151 52 -158 56 -11 6 -13 47 -12 186 l1 178 -113 149 c-62 82 -114 147
-116 145 -2 -2 15 -60 38 -129 l42 -125 -32 -153 c-18 -84 -33 -154 -35 -156
-2 -2 -6 43 -9 100 -14 215 -14 216 -70 323 -30 55 -86 163 -126 240 -61 118
-149 284 -155 292 -1 2 -60 -17 -131 -41 l-129 -44 55 -2 c52 -1 101 -7 106
-13 9 -9 164 -394 164 -407 0 -8 -34 -80 -75 -160 -41 -80 -94 -182 -117 -227
-24 -45 -44 -80 -46 -78 -2 1 26 104 62 228 36 123 66 231 66 240 0 12 -134
325 -144 334 -5 5 -749 163 -752 160 -2 -1 109 -52 246 -111 138 -60 250 -114
250 -120 -1 -24 -149 -640 -149 -621 -1 11 11 145 25 298 15 153 25 279 23
281 -2 2 -256 89 -564 194 -863 294 -975 332 -978 331 -1 0 -135 -36 -297 -79z
m977 -266 c318 -113 581 -209 585 -213 4 -3 -1 -146 -12 -316 -11 -171 -20
-323 -20 -339 0 -66 -9 -11 -25 159 -20 224 -33 261 -35 105 -1 -63 -3 -122
-5 -130 -1 -9 -6 -130 -10 -270 -4 -139 -9 -261 -10 -269 -2 -9 -4 -34 -5 -56
-2 -39 -16 112 -40 435 -6 85 -18 238 -26 340 -8 102 -14 197 -14 212 0 25
-10 33 -120 88 -66 33 -124 60 -130 60 -6 0 -28 -12 -50 -26 l-40 -26 -60 38
c-33 22 -60 41 -60 44 0 3 19 17 43 32 l42 28 -65 -6 c-56 -5 -73 -2 -123 20
l-59 27 -33 -21 -33 -20 5 63 6 64 -119 73 c-66 40 -132 81 -149 91 -16 10
-27 19 -23 19 4 0 268 -93 585 -206z m195 -2328 l13 -59 129 -34 c71 -18 130
-34 131 -35 1 -2 11 -16 22 -33 33 -49 123 -205 118 -205 -2 0 -40 42 -84 93
l-79 93 -123 22 c-67 13 -123 21 -124 20 -1 -2 -28 -140 -60 -308 -32 -168
-59 -307 -61 -309 -2 -2 -22 8 -45 23 -22 15 -42 26 -44 24 -1 -2 16 -32 39
-68 l41 -65 0 -120 1 -120 58 -135 c33 -74 64 -141 71 -148 6 -7 92 -51 191
-99 98 -47 180 -86 182 -88 1 -1 -3 -77 -9 -168 l-12 -166 54 -62 53 -61 95 6
c140 9 388 16 371 11 -8 -3 -171 -25 -361 -49 -299 -38 -353 -42 -405 -33 -99
18 -502 14 -623 -6 -82 -13 -106 -14 -112 -5 -6 10 -20 10 -64 1 -49 -11 -60
-10 -88 6 -46 25 -199 85 -292 114 -178 56 -370 91 -565 103 -160 10 -135 17
35 10 181 -9 333 -29 462 -61 53 -14 98 -23 100 -21 2 2 -29 18 -69 35 -85 35
-84 36 42 16 116 -19 256 -54 372 -94 l86 -29 82 18 c83 18 127 38 57 26 -32
-6 -38 -5 -35 10 2 12 -46 42 -195 121 l-197 105 -28 -18 c-25 -16 -26 -16
-13 0 19 23 13 26 -102 57 l-92 24 70 5 70 5 -216 58 c-118 31 -228 57 -243
57 -15 0 -78 -11 -139 -25 -111 -26 -114 -26 -324 -15 -273 14 -277 14 -346
-8 -52 -16 -63 -25 -96 -75 -33 -47 -40 -53 -44 -36 -3 11 5 51 18 90 13 38
22 69 20 69 -2 0 -24 -28 -48 -62 -40 -57 -43 -68 -40 -113 l3 -50 -22 45
c-18 36 -22 61 -21 120 l2 75 -35 -90 c-24 -60 -33 -98 -29 -115 l7 -25 -26
24 c-14 14 -26 23 -26 20 0 -2 11 -40 25 -84 l25 -80 -35 -31 c-19 -17 -35
-35 -35 -40 0 -4 12 -25 27 -47 25 -36 29 -38 67 -33 l41 6 -40 -18 c-22 -11
-47 -17 -55 -15 -8 1 -116 19 -240 38 -296 47 -285 44 -236 61 22 8 41 16 44
18 2 3 -26 54 -62 114 l-65 109 -68 29 -68 28 44 8 c24 4 46 9 48 12 2 2 -40
33 -94 70 l-98 66 -129 0 -129 0 6 167 c4 91 7 192 7 224 l0 59 105 70 c58 39
105 72 105 74 0 3 -171 -37 -209 -49 -16 -5 -21 5 -36 65 -11 47 -14 74 -7 83
80 102 192 247 192 250 0 3 -28 -2 -61 -10 -34 -8 -63 -12 -66 -10 -4 4 83
346 90 353 2 2 108 -6 236 -17 l233 -21 419 113 c230 62 418 114 416 115 -1 2
-92 -10 -202 -26 -110 -16 -201 -28 -202 -26 -2 1 61 32 140 68 l143 66 149 6
c83 3 254 8 380 12 l230 6 -55 -51 -55 -51 45 5 c25 2 151 14 280 25 129 12
377 33 550 49 173 15 317 27 319 25 2 -2 6 -24 9 -49 4 -36 8 -44 21 -40 9 2
95 31 191 63 l175 59 7 -26 c4 -14 13 -53 20 -85z m-3898 -2181 c151 -22 171
-23 197 -10 37 19 34 20 58 -21 27 -46 27 -47 -10 -39 l-32 7 38 -48 37 -49
-5 -130 c-6 -143 -27 -235 -76 -333 -35 -69 -71 -183 -71 -223 0 -33 15 -42
90 -53 107 -16 231 33 326 128 35 35 64 62 64 60 0 -3 -15 -28 -33 -57 -42
-66 -96 -113 -167 -146 -48 -23 -68 -26 -155 -26 -94 0 -105 2 -170 34 -141
69 -250 212 -297 390 -25 97 -27 279 -4 404 16 83 31 137 39 137 2 0 79 -11
171 -25z m4428 -235 c113 -271 129 -310 123 -310 -3 0 -23 29 -46 65 -23 36
-44 64 -47 61 -2 -3 -37 -156 -77 -340 l-72 -334 -94 -114 c-299 -361 -307
-370 -381 -420 -255 -171 -586 -358 -827 -466 l-93 -42 68 -47 c162 -110 237
-163 231 -163 -3 0 -47 16 -99 36 -163 63 -248 94 -248 90 0 -2 19 -16 43 -31
23 -16 69 -48 102 -72 l59 -43 -89 6 c-76 6 -87 5 -82 -8 3 -9 9 -52 13 -97
l7 -82 81 -75 81 -76 -107 57 c-60 31 -108 52 -108 46 0 -6 25 -61 56 -123 38
-77 50 -109 39 -104 -9 3 -112 61 -228 129 -117 68 -258 150 -314 182 -57 33
-103 62 -103 65 0 3 26 3 57 1 67 -4 74 -18 -63 139 l-92 105 -207 73 c-115
40 -209 71 -211 69 -2 -1 18 -14 44 -27 104 -54 119 -67 136 -117 16 -48 16
-48 -4 -25 -11 13 -27 34 -37 47 -12 15 -64 41 -153 74 -117 45 -128 51 -85
46 l50 -5 -95 50 c-52 27 -98 49 -101 49 -4 1 -10 -11 -14 -26 l-8 -28 -8 35
c-11 52 14 87 74 100 l32 7 -40 11 c-35 10 -43 9 -65 -6 -47 -35 -55 -36 -32
-7 56 74 63 85 52 85 -6 0 -29 -9 -51 -21 -23 -11 -43 -19 -44 -17 -9 8 48 68
64 68 10 0 39 7 64 16 65 22 129 87 156 158 26 71 27 104 0 54 -45 -86 -122
-137 -217 -144 l-57 -4 50 16 49 16 -34 28 c-146 120 -329 129 -495 25 -69
-43 -80 -46 -166 -46 -85 0 -165 25 -205 62 -29 27 -31 15 -6 -24 25 -37 78
-75 125 -89 l38 -11 -48 -49 c-46 -47 -47 -50 -29 -64 19 -13 19 -14 -5 -14
-18 0 -38 -16 -72 -56 -50 -60 -56 -74 -32 -74 8 0 15 -4 15 -10 0 -5 -3 -9
-7 -9 -32 5 -47 -10 -99 -96 -31 -52 -58 -95 -59 -95 -2 0 1 16 7 36 5 20 8
38 5 40 -2 3 -30 -25 -62 -61 -32 -37 -61 -63 -65 -58 -4 4 -19 76 -34 158
-16 83 -30 161 -33 175 -5 24 -5 25 11 5 16 -20 16 -19 11 5 -3 14 -19 95 -35
180 -16 85 -43 204 -60 265 -33 122 -57 287 -47 326 6 24 12 26 80 32 40 4
106 17 147 31 41 13 76 23 77 22 2 -1 -11 -61 -27 -133 -27 -117 -29 -139 -20
-200 16 -113 52 -194 119 -266 46 -50 64 -51 26 -1 -71 92 -108 195 -107 293
0 57 9 87 62 216 42 103 72 161 95 185 30 31 34 44 45 125 6 50 19 131 28 180
18 89 20 93 154 296 l136 206 43 7 c24 3 61 2 81 -3 41 -10 122 -54 135 -74 4
-6 8 -48 9 -92 0 -62 8 -101 33 -175 138 -406 371 -651 700 -737 127 -33 333
-42 438 -20 145 31 269 96 367 192 130 127 218 303 261 525 10 48 30 108 46
137 15 28 31 74 35 101 l6 50 47 6 c25 3 198 20 384 36 337 31 338 31 448 71
94 35 277 80 302 75 5 -1 49 -98 99 -216z m-1745 13 c-7 -149 -27 -261 -67
-379 -36 -108 -70 -164 -139 -237 -100 -105 -226 -158 -376 -158 -280 0 -516
193 -573 470 l-17 83 35 30 c42 36 177 138 183 138 2 0 -32 -36 -77 -81 -54
-54 -74 -79 -59 -76 18 4 23 -2 33 -39 7 -25 17 -47 21 -50 5 -3 43 22 85 56
42 33 80 60 84 60 3 0 12 -21 18 -47 6 -27 13 -55 17 -64 4 -12 -8 -27 -44
-53 l-51 -36 37 -33 c173 -153 354 -192 517 -110 68 34 173 145 225 238 55 96
106 230 129 336 9 43 18 79 21 79 2 0 1 -57 -2 -127z m-1359 -2086 c75 -36
164 -76 197 -90 75 -31 279 -97 302 -98 10 0 13 -3 6 -5 -21 -9 -182 35 -295
81 -62 25 -160 65 -218 87 l-105 42 -163 1 c-89 1 -166 5 -170 9 -17 18 33 37
83 31 27 -3 64 -1 80 4 66 23 138 7 283 -62z m-258 -207 c119 -23 153 -24 240
-5 76 17 171 19 255 5 76 -12 207 -51 199 -59 -3 -3 -33 -16 -67 -28 l-62 -22
255 6 255 6 55 -99 c125 -225 148 -328 95 -419 -68 -115 -237 -257 -375 -315
-112 -47 -233 -36 -317 28 -47 35 -85 120 -87 190 -1 55 0 57 27 60 15 2 52
-8 82 -22 31 -14 53 -20 49 -13 -38 63 -191 275 -249 342 l-26 30 16 -39 c8
-21 15 -41 15 -44 0 -3 -23 20 -51 51 -28 31 -55 55 -59 52 -13 -8 -178 -8
-231 0 l-46 7 -19 -53 -19 -53 -5 40 c-5 38 -6 36 -72 -108 -38 -81 -68 -149
-68 -151 0 -2 34 -12 75 -22 84 -21 83 -18 39 -107 -35 -70 -87 -118 -128
-118 -73 0 -183 109 -248 246 -27 58 -57 174 -58 222 0 13 -12 40 -27 60 -28
36 -28 36 20 17 10 -4 17 10 26 48 19 87 107 257 133 257 4 0 36 -21 70 -46
35 -25 71 -50 81 -55 17 -10 17 -8 1 28 -31 72 -30 79 13 91 59 15 103 14 213
-8z m1555 -1833 c-11 -8 -121 -76 -244 -152 -123 -77 -219 -141 -213 -143 7
-2 93 6 192 18 100 12 182 21 184 19 3 -4 -387 -940 -390 -936 -160 182 -922
1082 -919 1085 2 3 121 -15 264 -39 l259 -43 434 101 c238 55 437 101 443 102
5 1 1 -5 -10 -12z m-1644 -424 c79 -98 267 -331 419 -518 152 -187 324 -400
383 -472 59 -73 105 -133 102 -133 -2 0 -116 89 -252 197 -433 344 -525 416
-678 537 -82 66 -153 122 -157 125 -4 4 1 97 12 206 11 110 20 208 20 218 0 9
2 17 4 17 2 0 68 -80 147 -177z"/>
<path d="M11131 8106 c-40 -76 -69 -142 -64 -146 4 -5 26 -10 47 -12 l40 -3
28 140 c15 77 27 144 25 149 -2 6 -36 -52 -76 -128z"/>
<path d="M10953 7771 c-18 -33 -33 -64 -33 -69 0 -8 116 -32 158 -32 15 0 21
12 31 71 7 38 11 72 9 74 -2 2 -33 7 -68 10 l-65 7 -32 -61z"/>
</g>
</svg>
