<?xml version="1.0" standalone="no"?>
<!DOCTYPE svg PUBLIC "-//W3C//DTD SVG 20010904//EN"
 "http://www.w3.org/TR/2001/REC-SVG-20010904/DTD/svg10.dtd">
<svg version="1.0" xmlns="http://www.w3.org/2000/svg"
 width="540.000000pt" height="360.000000pt" viewBox="0 0 540.000000 360.000000"
 preserveAspectRatio="xMidYMid meet">
<metadata>
Created by potrace 1.16, written by Peter Selinger 2001-2019
</metadata>
<g transform="translate(0.000000,360.000000) scale(0.100000,-0.100000)"
fill="#000000" stroke="none">
<path d="M2092 3040 c-13 -6 -42 -23 -65 -39 -23 -16 -49 -30 -58 -32 -12 -3
67 -124 292 -454 170 -247 309 -451 309 -453 0 -2 -51 32 -112 75 -62 43 -270
187 -463 320 -257 178 -352 239 -362 232 -6 -6 -21 -8 -33 -4 -12 4 -30 1 -43
-8 -12 -8 -51 -17 -87 -20 -60 -5 -68 -9 -97 -43 -18 -20 -33 -46 -33 -57 0
-29 64 -142 121 -214 98 -123 211 -204 504 -363 261 -141 343 -196 760 -505
403 -299 575 -414 790 -525 236 -123 445 -187 648 -197 115 -6 117 -6 117 16
0 30 -33 91 -67 123 -15 15 -83 55 -151 88 -79 40 -155 87 -210 132 l-87 70
-56 -6 c-58 -6 -79 3 -79 34 0 9 9 25 20 35 24 22 26 58 5 75 -13 11 -23 10
-57 0 -37 -13 -42 -12 -54 5 -19 26 -18 32 11 59 28 26 33 61 9 70 -8 3 -33
-3 -54 -14 -43 -22 -66 -18 -75 11 -8 23 8 45 47 65 32 16 38 53 12 75 -13 11
-22 10 -57 -9 -52 -27 -73 -28 -87 -3 -14 28 -5 43 45 74 57 33 66 54 36 78
-22 18 -24 18 -72 -7 -51 -25 -83 -25 -93 1 -9 25 2 39 59 73 62 37 69 45 60
72 -8 26 -39 34 -67 16 -66 -41 -101 -55 -120 -45 -10 5 -18 20 -18 33 0 18
16 33 73 67 63 39 72 48 72 74 0 44 -31 44 -109 0 -79 -44 -111 -44 -111 0 0
26 8 34 78 73 90 51 98 67 72 149 -25 78 -23 193 4 261 12 29 21 68 21 87 0
49 -36 139 -71 176 -29 31 -30 32 -107 26 -152 -10 -201 -39 -254 -149 -45
-95 -102 -143 -157 -134 -79 12 -261 150 -296 222 -19 41 -13 128 12 156 20
23 5 47 -56 92 -94 69 -189 93 -259 66z"/>
<path d="M1908 2918 c-15 -12 -10 -24 57 -122 69 -101 99 -141 80 -106 -5 9
-4 12 1 7 5 -5 9 -16 9 -25 0 -9 5 -16 11 -15 7 1 11 -5 10 -15 0 -9 4 -17 11
-17 6 0 15 -4 20 -9 5 -5 3 -6 -4 -2 -21 12 -16 1 38 -76 28 -40 56 -71 62
-70 7 2 9 0 5 -4 -4 -4 2 -22 13 -41 11 -18 18 -33 15 -33 -2 0 -102 68 -221
150 -119 83 -221 147 -227 144 -6 -4 -8 -2 -4 4 3 6 -10 20 -30 32 -34 21 -37
22 -52 5 -16 -16 -16 -18 1 -28 10 -7 52 -36 94 -65 74 -52 75 -53 97 -35 21
18 21 18 3 -3 -17 -20 -16 -21 40 -59 32 -22 101 -70 154 -107 53 -37 100 -68
105 -68 5 0 2 5 -6 11 -13 9 -13 10 0 6 8 -2 15 -9 15 -15 0 -17 43 -44 57
-36 6 4 8 3 5 -3 -4 -6 0 -17 9 -24 13 -10 17 -10 26 2 8 11 9 11 5 -3 -4 -11
7 -24 34 -42 22 -15 44 -24 49 -21 5 3 12 0 16 -6 4 -8 3 -9 -4 -5 -26 16 -10
-4 20 -25 33 -24 32 -21 -15 49 -28 41 -30 42 -48 26 -10 -9 -19 -14 -19 -9 0
4 7 13 16 20 15 10 13 17 -21 68 -21 31 -42 54 -48 50 -6 -3 -7 -1 -3 6 10 15
-13 43 -27 34 -6 -3 -7 -1 -3 5 9 14 -133 224 -145 216 -5 -3 -7 1 -4 8 4 14
-153 249 -170 255 -6 2 -18 -2 -27 -9z"/>
<path d="M1800 2825 c-29 -30 -52 -56 -49 -58 45 -39 172 -117 180 -111 7 4 9
3 6 -3 -6 -10 43 -49 130 -105 43 -28 43 -27 -58 120 -55 81 -105 146 -111
144 -5 -1 -7 2 -3 8 6 9 -24 59 -35 60 -3 0 -30 -25 -60 -55z"/>
<path d="M1277 2452 c-40 -42 -50 -86 -32 -147 17 -60 77 -161 93 -158 6 2 9
-3 6 -11 -5 -13 64 -73 79 -68 4 1 6 -2 5 -8 -4 -13 92 -91 103 -84 5 3 8 1 7
-4 -4 -15 90 -84 104 -76 7 4 8 3 4 -4 -4 -7 8 -21 28 -34 19 -13 71 -49 115
-81 45 -32 86 -55 91 -52 5 3 12 0 16 -6 5 -8 3 -9 -7 -4 -21 12 0 -7 44 -39
20 -15 42 -24 49 -20 6 4 8 3 5 -3 -9 -14 221 -165 236 -156 7 3 9 3 5 -2 -14
-16 260 -185 301 -185 63 0 158 -73 145 -112 -6 -21 13 -51 27 -42 5 3 8 1 7
-5 -2 -8 99 -99 182 -164 8 -7 34 -27 57 -45 24 -19 48 -30 54 -26 7 4 9 3 6
-3 -8 -12 50 -56 63 -48 6 4 9 1 8 -7 -2 -7 5 -12 14 -12 10 1 16 -2 13 -6 -3
-5 13 -19 35 -31 42 -24 51 -39 24 -39 -8 0 -113 -9 -232 -20 -119 -11 -523
-47 -897 -79 -374 -33 -698 -62 -720 -64 -22 -2 352 -5 830 -6 479 -1 859 -6
845 -11 -14 -4 -252 -28 -530 -52 l-505 -43 1110 -3 c1067 -2 1111 -1 1135 16
42 31 71 91 68 142 l-3 45 -100 7 c-172 12 -358 60 -536 138 -38 17 -75 28
-82 24 -6 -4 -9 -3 -4 1 10 12 -70 58 -86 49 -6 -4 -9 -4 -5 1 10 10 -140 97
-153 89 -5 -3 -8 -1 -7 4 2 5 -58 49 -132 98 -74 49 -138 93 -141 98 -4 5 -11
6 -17 2 -6 -3 -14 -1 -18 5 -5 8 -3 9 7 4 22 -13 8 0 -44 39 -26 20 -53 34
-59 30 -6 -4 -8 -3 -5 3 8 13 -50 56 -65 47 -6 -4 -8 -3 -5 3 4 6 -27 36 -69
67 -78 58 -90 65 -78 44 4 -8 3 -10 -2 -5 -5 5 -9 14 -9 20 0 7 -8 11 -18 11
-9 -1 -15 2 -12 6 7 11 -22 33 -35 25 -6 -4 -9 -2 -8 4 4 13 -142 122 -154
115 -4 -3 -7 -1 -6 5 2 6 -9 19 -23 28 -15 10 -61 42 -103 71 -42 29 -82 50
-88 46 -6 -4 -8 -3 -4 4 8 14 -110 86 -125 76 -7 -4 -9 -3 -6 3 9 14 -129 87
-145 77 -7 -4 -8 -3 -4 4 4 7 -17 23 -55 43 -82 41 -223 128 -279 172 -24 20
-48 33 -54 30 -5 -3 -6 -1 -2 5 3 6 -2 17 -12 24 -10 7 -41 38 -67 68 -27 30
-53 54 -57 53 -4 -2 -7 1 -5 5 3 11 -73 142 -82 142 -4 0 -19 -13 -34 -28z"/>
</g>
</svg>
