<?xml version="1.0" standalone="no"?>
<!DOCTYPE svg PUBLIC "-//W3C//DTD SVG 20010904//EN"
 "http://www.w3.org/TR/2001/REC-SVG-20010904/DTD/svg10.dtd">
<svg version="1.0" xmlns="http://www.w3.org/2000/svg"
 width="1000.000000pt" height="1080.000000pt" viewBox="0 0 1000.000000 1080.000000"
 preserveAspectRatio="xMidYMid meet">
<metadata>
Created by potrace 1.16, written by Peter Selinger 2001-2019
</metadata>
<g transform="translate(0.000000,1080.000000) scale(0.100000,-0.100000)"
fill="#000000" stroke="none">
<path d="M4159 7334 c-66 -20 -134 -85 -207 -199 -194 -299 -331 -444 -471
-499 -96 -37 -260 -14 -377 53 -72 42 -213 178 -270 261 -26 39 -49 68 -51 67
-7 -8 37 -158 65 -219 87 -193 225 -316 407 -363 89 -23 269 -21 370 5 173 44
292 126 450 313 187 220 274 254 452 179 37 -15 160 -86 272 -156 352 -220
551 -321 836 -424 248 -89 489 -148 886 -217 318 -54 498 -75 704 -82 169 -5
334 1 322 13 -2 2 -109 22 -238 43 -672 113 -1249 275 -1590 447 -132 66 -266
148 -589 364 -344 229 -435 285 -564 346 -163 77 -302 101 -407 68z"/>
<path d="M2675 7013 c-73 -209 -124 -414 -146 -578 -16 -124 -7 -329 20 -430
73 -277 271 -506 566 -653 146 -72 316 -123 590 -176 625 -119 1431 -139 2085
-50 360 49 914 173 1220 274 278 92 375 114 500 115 91 0 111 -3 147 -23 52
-27 75 -60 75 -105 0 -143 -240 -276 -737 -412 -422 -115 -1021 -204 -1379
-205 -112 -1 -100 -11 52 -45 167 -38 345 -55 572 -55 234 0 352 9 600 46 508
76 879 231 1111 465 70 69 96 104 130 175 42 83 44 92 44 173 0 70 -4 94 -23
128 -49 94 -128 156 -254 201 -61 21 -91 26 -183 26 -60 0 -141 -6 -180 -13
-132 -25 -500 -121 -750 -196 -474 -143 -798 -212 -1170 -252 -242 -25 -906
-25 -1153 0 -332 34 -639 96 -864 173 -145 49 -350 152 -443 221 -228 170
-369 406 -421 707 -18 102 -14 404 6 485 15 60 6 63 -15 4z"/>
<path d="M4581 6633 c-41 -67 -191 -225 -289 -306 -181 -147 -477 -315 -702
-397 -63 -23 -124 -45 -135 -49 -35 -14 80 -35 190 -35 167 -1 321 40 505 135
184 94 315 219 391 374 46 94 81 226 77 288 l-3 45 -34 -55z"/>
<path d="M4996 6357 c-109 -224 -449 -529 -756 -680 l-65 -32 75 -3 c299 -13
656 227 755 507 21 59 37 192 28 232 l-8 34 -29 -58z"/>
<path d="M5431 6205 c-71 -210 -307 -486 -569 -665 -35 -23 -61 -45 -58 -47 9
-10 152 19 208 41 100 41 169 88 263 181 68 66 100 107 123 155 56 115 74 227
53 335 l-7 40 -13 -40z"/>
<path d="M5821 6056 c-4 -131 -87 -339 -194 -488 l-55 -76 39 14 c93 32 183
123 242 243 29 59 32 75 32 156 0 77 -4 98 -27 148 -15 31 -29 57 -31 57 -2 0
-5 -24 -6 -54z"/>
<path d="M2437 5927 c-56 -108 -226 -276 -407 -402 -100 -71 -146 -124 -166
-193 -66 -224 213 -441 746 -581 333 -87 661 -122 1160 -122 473 0 825 42
1107 132 177 57 198 54 -391 54 -640 1 -984 20 -1356 76 -595 90 -940 239
-940 406 0 64 12 85 105 185 134 142 188 233 201 335 6 49 -9 148 -25 157 -4
3 -19 -19 -34 -47z"/>
<path d="M4725 4569 c-969 -32 -1817 -112 -2600 -246 -422 -72 -422 -71 -29
-43 516 36 1311 77 1944 99 841 31 1931 22 3690 -29 190 -5 388 -12 440 -14
l95 -5 -120 25 c-481 98 -1256 183 -1960 214 -252 11 -1105 11 -1460 -1z"/>
<path d="M0 400 l0 -400 5000 0 5000 0 0 400 0 400 -5000 0 -5000 0 0 -400z
m1395 106 c25 -11 33 -19 29 -30 -7 -19 -5 -19 -40 -1 -36 18 -55 19 -78 2
-28 -21 -9 -45 49 -62 87 -25 108 -74 54 -127 -29 -29 -33 -30 -90 -25 -68 6
-72 8 -64 29 5 13 12 14 40 5 50 -15 100 1 100 33 0 16 -8 28 -25 36 -87 40
-105 51 -108 67 -14 70 53 106 133 73z m587 -48 l3 -62 36 32 c20 18 45 32 55
32 14 0 9 -9 -21 -40 l-39 -40 42 -60 c40 -57 41 -60 20 -60 -16 0 -32 14 -53
45 -16 25 -33 45 -37 45 -5 0 -8 -20 -8 -45 0 -38 -3 -45 -20 -45 -19 0 -20 7
-20 130 0 122 1 130 20 130 16 0 19 -8 22 -62z m-1353 -24 c12 -15 21 -40 21
-55 0 -29 0 -29 -65 -29 -72 0 -83 -12 -44 -51 17 -17 30 -20 65 -16 43 4 59
-5 28 -17 -45 -17 -106 3 -123 41 -45 98 56 206 118 127z m456 3 c20 -16 28
-35 32 -69 5 -42 3 -50 -25 -78 -41 -41 -83 -41 -124 0 -28 28 -30 36 -25 78
9 82 84 119 142 69z m622 8 c30 -21 44 -75 32 -120 -25 -88 -143 -88 -168 0
-20 72 20 135 84 135 17 0 40 -7 52 -15z"/>
<path d="M986 424 c-50 -50 -21 -144 44 -144 48 0 80 50 66 104 -13 53 -75 75
-110 40z"/>
</g>
</svg>
