<?xml version="1.0" standalone="no"?>
<!DOCTYPE svg PUBLIC "-//W3C//DTD SVG 20010904//EN"
 "http://www.w3.org/TR/2001/REC-SVG-20010904/DTD/svg10.dtd">
<svg version="1.0" xmlns="http://www.w3.org/2000/svg"
 width="360.000000pt" height="360.000000pt" viewBox="0 0 360.000000 360.000000"
 preserveAspectRatio="xMidYMid meet">
<metadata>
Created by potrace 1.16, written by Peter Selinger 2001-2019
</metadata>
<g transform="translate(0.000000,360.000000) scale(0.100000,-0.100000)"
fill="#000000" stroke="none">
<path d="M1494 2620 c-78 -20 -160 -58 -212 -97 -36 -27 -382 -438 -382 -453
0 -10 231 -300 255 -320 13 -11 23 -8 60 19 l45 32 0 -394 c0 -304 3 -397 13
-405 57 -47 997 -47 1054 0 10 8 13 101 13 405 l0 394 45 -32 c37 -27 47 -30
60 -19 24 20 255 310 255 320 0 15 -346 426 -382 453 -52 40 -155 85 -234 103
l-72 15 -53 -28 c-49 -26 -63 -28 -159 -28 -95 0 -110 3 -157 28 -61 32 -57
31 -149 7z m85 -118 c21 -78 100 -144 188 -158 79 -12 183 35 226 104 24 36
29 51 41 104 l6 26 57 -15 c61 -16 155 -60 190 -89 l23 -19 -20 -62 c-10 -34
-22 -85 -26 -112 -5 -42 -4 -52 11 -57 25 -10 40 14 54 86 7 36 16 71 20 78 6
10 49 -35 142 -147 74 -89 134 -166 134 -171 0 -5 -44 -65 -99 -134 -107 -136
-101 -134 -163 -79 -31 28 -32 30 -44 168 -13 150 -25 183 -55 153 -15 -14
-15 -29 0 -171 12 -115 16 -260 16 -560 l0 -405 -107 -9 c-139 -10 -607 -10
-745 0 l-108 9 0 416 c1 230 5 449 10 487 7 53 6 73 -4 83 -31 32 -56 -21 -56
-119 0 -25 -35 -63 -86 -92 -11 -6 -209 234 -209 253 0 5 60 82 134 171 93
112 136 157 142 147 11 -20 39 -163 39 -201 0 -45 24 -67 47 -44 14 14 15 26
4 102 -6 47 -21 114 -31 148 l-20 62 22 19 c36 29 118 68 183 87 68 19 63 22
84 -59z m154 26 c65 -11 170 -3 221 18 17 6 18 4 12 -20 -24 -97 -149 -154
-241 -110 -42 20 -70 50 -90 98 l-16 39 23 -7 c13 -4 53 -12 91 -18z"/>
</g>
</svg>
