<?xml version="1.0" standalone="no"?>
<!DOCTYPE svg PUBLIC "-//W3C//DTD SVG 20010904//EN"
 "http://www.w3.org/TR/2001/REC-SVG-20010904/DTD/svg10.dtd">
<svg version="1.0" xmlns="http://www.w3.org/2000/svg"
 width="381.000000pt" height="450.000000pt" viewBox="0 0 381.000000 450.000000"
 preserveAspectRatio="xMidYMid meet">
<metadata>
Created by potrace 1.16, written by Peter Selinger 2001-2019
</metadata>
<g transform="translate(0.000000,450.000000) scale(0.100000,-0.100000)"
fill="#000000" stroke="none">
<path d="M1901 4399 c-154 -30 -302 -112 -404 -223 -64 -70 -63 -84 1 -24 79
72 200 133 305 153 270 51 527 -34 736 -243 129 -129 200 -272 224 -455 l13
-92 14 80 c51 279 -26 547 -192 672 -78 58 -89 60 -32 6 64 -61 98 -107 134
-186 33 -69 70 -206 69 -252 0 -19 -7 -3 -18 43 -64 257 -249 440 -518 508
-101 25 -241 31 -332 13z"/>
<path d="M1493 4275 c-127 -58 -276 -189 -347 -306 -45 -75 -43 -43 4 59 16
34 27 62 24 62 -3 0 -30 -23 -60 -52 -119 -112 -179 -299 -140 -433 4 -11 -3
-1 -14 22 -26 55 -36 154 -21 222 6 30 10 56 7 58 -2 2 -31 -51 -65 -119 -131
-260 -118 -424 38 -496 49 -23 71 -26 186 -29 l130 -3 -49 20 c-124 52 -227
154 -259 258 -20 62 -30 145 -17 137 6 -3 10 -15 10 -26 0 -38 45 -115 100
-169 82 -82 219 -140 333 -140 l29 0 -42 43 c-93 96 -139 250 -119 396 29 206
123 378 256 467 94 62 95 65 16 29z"/>
<path d="M1789 4235 c-85 -17 -201 -66 -261 -110 -63 -46 -152 -155 -190 -233
-39 -79 -50 -215 -25 -303 19 -64 67 -141 107 -169 l29 -21 -31 60 c-105 204
18 497 257 607 140 65 321 81 490 44 95 -21 224 -76 264 -113 16 -14 22 -17
19 -7 -9 30 -159 148 -240 189 -134 67 -270 86 -419 56z"/>
<path d="M2780 4085 c0 -4 7 -20 16 -37 33 -63 65 -175 76 -264 32 -260 -86
-567 -302 -790 -29 -30 -50 -54 -46 -54 4 0 48 25 99 56 161 98 271 200 332
305 31 55 31 46 0 -55 -29 -98 -80 -183 -160 -273 -64 -72 -61 -73 25 -8 178
136 280 321 280 511 0 144 -47 297 -131 421 -17 27 -64 81 -103 121 -64 65
-86 82 -86 67z"/>
<path d="M2267 3956 c73 -80 127 -171 156 -261 29 -92 30 -260 3 -350 -22 -74
-78 -187 -141 -284 -181 -279 -158 -529 62 -679 49 -34 50 -26 2 17 -86 75
-130 195 -109 295 22 105 63 169 209 320 75 78 154 168 176 201 129 196 134
397 14 571 -29 42 -97 119 -88 98 3 -5 21 -42 42 -83 35 -72 73 -208 65 -233
-3 -7 -10 5 -17 27 -50 154 -220 338 -377 405 -25 11 -48 20 -51 20 -2 0 22
-29 54 -64z"/>
<path d="M1760 3989 c-103 -20 -211 -103 -260 -198 -45 -91 -49 -209 -8 -304
l22 -50 13 48 c38 130 152 224 272 225 76 0 125 -17 177 -63 70 -61 89 -106
89 -207 0 -94 -7 -120 -106 -377 -74 -191 -89 -253 -89 -375 0 -165 49 -286
168 -411 72 -76 202 -165 287 -197 39 -15 30 -6 -35 34 -197 122 -299 320
-270 525 17 120 61 221 172 394 114 177 156 291 165 439 7 119 -8 202 -50 283
-41 75 -118 155 -185 189 -99 50 -243 68 -362 45z"/>
<path d="M787 3278 c-13 -96 19 -275 74 -420 l30 -77 -27 -41 c-52 -78 -30
-167 66 -271 l51 -54 -35 65 c-45 85 -70 172 -63 223 3 22 9 43 14 48 5 5 28
-25 52 -66 25 -41 54 -84 66 -95 l22 -20 -9 57 c-19 136 23 355 98 505 13 26
24 50 24 53 0 3 -46 5 -102 5 -87 0 -111 4 -153 24 -46 21 -79 55 -96 96 -3 8
-9 -7 -12 -32z"/>
<path d="M1263 3056 c-48 -12 -109 -43 -101 -51 2 -2 20 0 39 4 98 22 279 -41
457 -160 40 -27 77 -49 82 -49 16 0 31 51 25 81 -11 50 -191 144 -334 175 -78
16 -99 16 -168 0z"/>
<path d="M2625 2914 c-122 -84 -217 -204 -234 -296 l-8 -43 -11 28 c-7 16 -12
61 -12 100 0 80 24 145 76 206 25 30 26 33 6 22 -34 -18 -90 -100 -107 -155
-33 -108 -6 -226 81 -357 26 -40 109 -136 185 -215 114 -119 144 -156 178
-224 37 -74 41 -90 41 -154 0 -39 -4 -76 -8 -83 -4 -7 -6 18 -4 55 8 146 -73
258 -277 384 -156 97 -247 165 -320 243 -74 79 -101 130 -108 202 -9 86 -28
37 -28 -73 0 -84 2 -95 37 -165 68 -136 166 -223 400 -358 68 -38 142 -88 165
-110 91 -89 109 -206 45 -296 -17 -25 -29 -45 -26 -45 13 0 111 70 135 96 50
54 69 103 69 175 0 99 -47 187 -162 304 -48 49 -88 90 -88 90 0 0 40 -19 90
-43 111 -54 175 -72 264 -72 168 0 230 100 180 294 -22 85 -30 95 -30 38 0
-63 -23 -98 -72 -111 -40 -11 -122 -2 -176 18 -16 7 -30 10 -33 8 -4 -4 89
-62 147 -93 l35 -18 -44 -8 c-59 -10 -167 13 -248 52 -140 69 -228 193 -228
320 0 98 45 199 128 288 40 41 25 40 -38 -4z"/>
<path d="M1146 2842 c-8 -14 38 -136 70 -185 14 -22 23 -42 19 -45 -4 -4 -28
-6 -53 -5 l-47 1 35 -19 c24 -14 28 -19 13 -15 -33 6 -28 -7 18 -49 58 -52
113 -75 184 -75 52 0 69 5 124 38 62 36 160 136 116 118 -77 -32 -104 -38
-151 -32 -71 8 -116 29 -152 71 -41 47 -51 84 -27 102 38 27 183 10 265 -32
l35 -18 -23 26 c-29 31 -124 82 -189 102 -63 20 -228 32 -237 17z"/>
<path d="M2814 2826 c-68 -30 -57 -135 15 -151 78 -17 131 71 79 129 -30 32
-56 38 -94 22z"/>
<path d="M2956 2771 c7 -34 -15 -81 -52 -110 -40 -31 -113 -29 -146 4 l-25 25
4 -24 c7 -33 61 -82 103 -93 75 -19 160 13 188 71 16 33 3 81 -35 126 -31 38
-44 38 -37 1z"/>
<path d="M3050 2632 c0 -59 -84 -109 -198 -119 -120 -10 -230 38 -251 110 l-9
32 -1 -35 c-3 -103 144 -194 314 -194 154 -1 213 65 173 195 -13 46 -28 51
-28 11z"/>
<path d="M2314 2031 c4 -6 13 -11 19 -11 18 0 87 -70 98 -98 38 -99 -47 -221
-153 -222 -30 0 -41 6 -55 27 l-18 26 -12 -42 c-37 -130 114 -166 249 -60 41
33 85 95 99 139 7 25 7 25 8 -5 1 -48 -53 -131 -117 -178 -137 -102 -167 -150
-119 -195 32 -30 46 -28 18 2 -19 20 -21 28 -12 45 14 25 66 53 137 74 109 32
174 78 209 147 44 86 26 160 -54 233 -46 42 -91 66 -176 95 -85 28 -129 37
-121 23z"/>
<path d="M2910 2030 c0 -5 4 -10 9 -10 18 0 70 -93 77 -135 9 -66 -11 -112
-82 -182 -34 -35 -60 -63 -58 -63 10 0 129 63 182 97 69 45 149 118 168 155
22 42 17 79 -13 110 -30 31 -56 39 -28 8 21 -23 23 -88 3 -122 l-13 -23 -3 27
c-2 15 -16 41 -32 57 -41 40 -210 106 -210 81z"/>
<path d="M1704 1866 l-80 -43 34 -39 c91 -105 98 -111 152 -124 64 -15 174 -9
220 14 48 22 148 145 129 157 -8 5 -17 9 -21 9 -4 0 -35 16 -69 36 -54 32 -66
35 -103 29 -48 -8 -75 -9 -136 -1 -39 4 -55 0 -126 -38z"/>
<path d="M1290 1756 c0 -21 61 -191 113 -311 61 -144 282 -605 290 -605 2 0
-4 30 -15 68 -10 37 -20 101 -20 142 -2 140 57 215 188 240 l67 13 -54 22
c-221 90 -415 230 -525 379 -24 32 -44 55 -44 52z"/>
<path d="M1418 875 c-54 -30 -157 -46 -358 -55 -295 -15 -374 -40 -422 -139
-19 -39 -23 -62 -23 -146 1 -90 4 -110 39 -205 20 -58 42 -120 47 -138 17 -57
20 -30 8 74 -12 106 -7 217 12 274 17 50 73 116 122 144 53 30 113 43 250 56
60 5 127 15 150 21 53 14 142 61 187 100 37 31 32 37 -12 14z"/>
</g>
</svg>
