<?xml version="1.0" standalone="no"?>
<!DOCTYPE svg PUBLIC "-//W3C//DTD SVG 20010904//EN"
 "http://www.w3.org/TR/2001/REC-SVG-20010904/DTD/svg10.dtd">
<svg version="1.0" xmlns="http://www.w3.org/2000/svg"
 width="450.000000pt" height="450.000000pt" viewBox="0 0 450.000000 450.000000"
 preserveAspectRatio="xMidYMid meet">
<metadata>
Created by potrace 1.16, written by Peter Selinger 2001-2019
</metadata>
<g transform="translate(0.000000,450.000000) scale(0.100000,-0.100000)"
fill="#000000" stroke="none">
<path d="M2181 3506 c-44 -24 -63 -84 -40 -127 15 -28 31 -14 17 16 -21 47 24
105 83 105 29 0 69 -44 69 -77 0 -29 -15 -55 -62 -115 -20 -25 -28 -47 -30
-88 -3 -54 -4 -55 -48 -77 -25 -12 -79 -29 -120 -38 -167 -35 -199 -51 -185
-93 7 -25 45 -39 126 -48 40 -4 63 -12 66 -22 10 -26 -16 -134 -41 -173 l-25
-38 44 -93 c24 -51 48 -119 54 -152 l11 -58 -78 -77 c-126 -124 -221 -259
-320 -457 -62 -123 -142 -325 -142 -357 0 -52 85 -117 153 -117 22 0 41 -8 53
-21 51 -56 185 -83 260 -51 28 12 34 11 68 -12 55 -37 100 -49 176 -44 55 3
77 10 119 35 l51 32 61 -15 c79 -20 150 -7 213 42 26 20 56 34 73 34 34 0 128
53 143 79 5 11 10 28 10 37 0 30 -60 184 -124 319 -106 221 -203 363 -338 497
l-78 76 9 49 c13 63 32 115 70 191 l31 62 -25 38 c-28 42 -51 138 -41 175 5
21 13 25 71 30 65 6 125 29 125 48 0 18 -20 48 -39 58 -9 6 -71 19 -137 30
-127 21 -203 44 -216 64 -4 7 -8 31 -8 54 0 33 7 50 36 84 20 24 40 54 45 67
36 94 -53 176 -140 128z m152 -390 l77 -21 0 -35 c0 -83 5 -80 -160 -80 -145
0 -148 0 -154 23 -12 47 -7 89 13 94 10 2 40 15 67 28 27 13 56 21 64 18 8 -3
50 -15 93 -27z m52 -193 c-17 -89 -67 -143 -135 -143 -68 0 -118 54 -135 143
l-7 37 142 0 142 0 -7 -37z"/>
</g>
</svg>
