<?xml version="1.0" standalone="no"?>
<!DOCTYPE svg PUBLIC "-//W3C//DTD SVG 20010904//EN"
 "http://www.w3.org/TR/2001/REC-SVG-20010904/DTD/svg10.dtd">
<svg version="1.0" xmlns="http://www.w3.org/2000/svg"
 width="360.000000pt" height="360.000000pt" viewBox="0 0 360.000000 360.000000"
 preserveAspectRatio="xMidYMid meet">
<metadata>
Created by potrace 1.16, written by Peter Selinger 2001-2019
</metadata>
<g transform="translate(0.000000,360.000000) scale(0.100000,-0.100000)"
fill="#000000" stroke="none">
<path d="M1700 3109 c-75 -15 -180 -73 -243 -135 -114 -113 -151 -237 -145
-489 l3 -130 48 -3 c40 -3 47 0 48 15 0 10 0 68 -1 128 -2 224 30 326 132 420
78 72 146 99 258 99 110 0 179 -27 255 -96 108 -98 135 -182 135 -421 l0 -148
48 3 47 3 3 140 c3 180 -9 261 -54 353 -96 196 -316 303 -534 261z"/>
<path d="M1235 2330 c-216 -8 -223 -16 -264 -332 l-27 -210 29 -47 c16 -25 63
-79 103 -119 126 -123 282 -211 463 -260 85 -22 115 -25 261 -25 146 0 176 3
262 26 113 30 238 86 329 148 74 49 192 164 236 229 l30 45 -27 212 c-30 232
-43 272 -100 311 -30 20 -45 22 -159 22 -69 0 -322 2 -561 3 -239 1 -498 0
-575 -3z m546 -630 c13 -8 25 -7 40 1 28 14 66 -2 78 -33 11 -30 -6 -62 -59
-113 l-41 -40 -50 52 c-56 59 -65 101 -27 127 26 19 33 19 59 6z"/>
<path d="M966 1633 c-25 -160 -66 -521 -61 -540 9 -37 64 -92 103 -103 49 -13
1534 -14 1581 0 45 13 99 66 106 104 5 25 -38 410 -61 545 l-5 33 -77 -74
c-95 -91 -156 -136 -258 -188 -293 -150 -653 -156 -951 -15 -124 59 -193 105
-290 198 l-81 78 -6 -38z"/>
</g>
</svg>
