<?xml version="1.0" standalone="no"?>
<!DOCTYPE svg PUBLIC "-//W3C//DTD SVG 20010904//EN"
 "http://www.w3.org/TR/2001/REC-SVG-20010904/DTD/svg10.dtd">
<svg version="1.0" xmlns="http://www.w3.org/2000/svg"
 width="1200.000000pt" height="1008.000000pt" viewBox="0 0 1200.000000 1008.000000"
 preserveAspectRatio="xMidYMid meet">
<metadata>
Created by potrace 1.16, written by Peter Selinger 2001-2019
</metadata>
<g transform="translate(0.000000,1008.000000) scale(0.100000,-0.100000)"
fill="#000000" stroke="none">
<path d="M5122 7415 c3 -4 178 -26 388 -50 210 -24 383 -45 385 -47 5 -5
-1089 -1109 -1099 -1108 -8 0 -89 57 -539 378 -106 75 -117 86 -104 101 44 52
575 690 587 706 17 23 11 18 -510 -435 -217 -188 -529 -458 -692 -599 -163
-141 -297 -261 -297 -266 -1 -6 513 -523 1141 -1150 628 -627 1137 -1133 1131
-1125 -5 8 -421 515 -924 1125 -503 611 -918 1116 -923 1123 -6 9 110 12 551
12 l558 0 110 -233 c60 -127 139 -295 176 -372 37 -77 229 -482 427 -900 198
-418 389 -821 425 -897 36 -75 68 -145 72 -157 8 -27 22 -27 30 0 4 12 36 82
72 157 36 76 227 479 425 897 198 418 390 823 427 900 37 77 116 245 176 372
l110 233 558 0 c441 0 557 -3 551 -12 -5 -7 -420 -512 -923 -1123 -503 -610
-919 -1117 -924 -1125 -6 -8 503 498 1131 1125 628 627 1142 1144 1141 1150 0
5 -134 125 -297 266 -163 141 -470 407 -681 590 -494 429 -539 468 -521 444
13 -17 545 -658 587 -706 13 -15 5 -23 -69 -76 -397 -284 -567 -403 -574 -403
-10 -1 -1104 1103 -1099 1108 2 2 175 23 385 47 210 24 385 46 388 50 3 3
-392 5 -878 5 -486 0 -881 -2 -878 -5z"/>
</g>
</svg>
